<svg xmlns="http://www.w3.org/2000/svg" viewBox="0 0 24 24" width="24" height="24">
  <defs>
    <radialGradient id="b" cx="30%" cy="20%" r="80%">
      <stop offset="0%" stop-color="#4ade80"/> <!-- 浅绿 -->
      <stop offset="40%" stop-color="#22c55e"/> <!-- 亮绿 -->
      <stop offset="100%" stop-color="#15803d"/> <!-- 深绿 -->
    </radialGradient>
  </defs>
  <g transform="translate(12 12)">
    <path 
      d="M0-8.5q-2.8-3.8-5.1 1.1Q-4-1.7-1.7-.6q2.3-.8 2.3-3Zm9 5.7q2.8-3.8-2.5-4.5Q1.4-4.5.8-2.2 2.2-.3 4.2-1.1ZM5.7 7.5q4.7 1.3 3.1-3.7-3.7-4-6.3-3.9-1.3 1.9-.1 3.8Zm-11.4 0q-.2 5.1 5.1 2.3 2.8-5.7 1.9-7.5-2.3-.8-3.6 1.1ZM-9-2.8q-5.1 1.5-.8 5.3 6 .9 7.7-.9-.1-2.5-2.3-3Z" 
      fill="url(#b)" 
      stroke="#15803d" 
      stroke-width=".1" 
      stroke-opacity=".6"
    />
  </g>
</svg>

