<svg xmlns="http://www.w3.org/2000/svg" viewBox="0 0 800 400" width="800" height="400">
  <defs>
    <!-- 背景渐变 -->
    <linearGradient id="bgGradient" x1="0%" y1="0%" x2="100%" y2="100%">
      <stop offset="0%" stop-color="#F9F9F9"/>
      <stop offset="30%" stop-color="#F3F7F4"/>
      <stop offset="70%" stop-color="#EBF4ED"/>
      <stop offset="100%" stop-color="#E8F2EA"/>
    </linearGradient>
    
    <!-- 主图标渐变 -->
    <radialGradient id="mainIcon" cx="30%" cy="20%" r="80%">
      <stop offset="0%" stop-color="#B3E0BE"/>
      <stop offset="40%" stop-color="#67A373"/>
      <stop offset="100%" stop-color="#658D6D"/>
    </radialGradient>
    
    <!-- 装饰性图标渐变 -->
    <radialGradient id="decorIcon" cx="30%" cy="20%" r="80%">
      <stop offset="0%" stop-color="#67A373" stop-opacity="0.3"/>
      <stop offset="40%" stop-color="#B3E0BE" stop-opacity="0.2"/>
      <stop offset="100%" stop-color="#658D6D" stop-opacity="0.1"/>
    </radialGradient>
    
    <!-- 阴影滤镜 -->
    <filter id="shadow" x="-50%" y="-50%" width="200%" height="200%">
      <feDropShadow dx="0" dy="4" stdDeviation="8" flood-color="#658D6D" flood-opacity="0.15"/>
    </filter>
    
    <!-- 微光滤镜 -->
    <filter id="glow" x="-50%" y="-50%" width="200%" height="200%">
      <feGaussianBlur stdDeviation="3" result="coloredBlur"/>
      <feMerge>
        <feMergeNode in="coloredBlur"/>
        <feMergeNode in="SourceGraphic"/>
      </feMerge>
    </filter>
  </defs>
  
  <!-- 背景 -->
  <rect width="800" height="400" fill="url(#bgGradient)"/>
  
  <!-- 装饰性背景图案 -->
  <g opacity="0.1">
    <!-- 装饰性花瓣图案 -->
    <g transform="translate(100 80)">
      <path d="M0-20q-5-7-10 2 2 11 7 14 4-2 4-6ZM18-6q5-7-5-9-10 6-11 10 3 4 7 2ZM11 15q9 3 6-7-7-8-12-8-3 4 0 8ZM-11 15q0 10 10 5 6-11 4-15-5-2-7 2ZM-18-6q-10 3-2 11 12 2 15-2 0-5-5-6Z" fill="url(#decorIcon)"/>
    </g>
    
    <g transform="translate(650 320) scale(0.8)">
      <path d="M0-20q-5-7-10 2 2 11 7 14 4-2 4-6ZM18-6q5-7-5-9-10 6-11 10 3 4 7 2ZM11 15q9 3 6-7-7-8-12-8-3 4 0 8ZM-11 15q0 10 10 5 6-11 4-15-5-2-7 2ZM-18-6q-10 3-2 11 12 2 15-2 0-5-5-6Z" fill="url(#decorIcon)"/>
    </g>
    
    <g transform="translate(720 100) scale(0.6)">
      <path d="M0-20q-5-7-10 2 2 11 7 14 4-2 4-6ZM18-6q5-7-5-9-10 6-11 10 3 4 7 2ZM11 15q9 3 6-7-7-8-12-8-3 4 0 8ZM-11 15q0 10 10 5 6-11 4-15-5-2-7 2ZM-18-6q-10 3-2 11 12 2 15-2 0-5-5-6Z" fill="url(#decorIcon)"/>
    </g>
  </g>
  
  <!-- 主要内容区域 -->
  <g transform="translate(400 200)">
    <!-- 中央主图标 -->
    <g filter="url(#shadow)">
      <g transform="scale(4)">
        <path d="M0-8.5q-2.8-3.8-5.1 1.1Q-4-1.7-1.7-.6q2.3-.8 2.3-3Zm9 5.7q2.8-3.8-2.5-4.5Q1.4-4.5.8-2.2 2.2-.3 4.2-1.1ZM5.7 7.5q4.7 1.3 3.1-3.7-3.7-4-6.3-3.9-1.3 1.9-.1 3.8Zm-11.4 0q-.2 5.1 5.1 2.3 2.8-5.7 1.9-7.5-2.3-.8-3.6 1.1ZM-9-2.8q-5.1 1.5-.8 5.3 6 .9 7.7-.9-.1-2.5-2.3-3Z" 
              fill="url(#mainIcon)" 
              stroke="#67A373" 
              stroke-width="0.3" 
              stroke-opacity="0.8"
              filter="url(#glow)"/>
      </g>
    </g>
    
    <!-- 围绕主图标的装饰性小图标 -->
    <g opacity="0.6">
      <!-- 左上 -->
      <g transform="translate(-120 -80) rotate(-15) scale(1.5)">
        <path d="M0-8.5q-2.8-3.8-5.1 1.1Q-4-1.7-1.7-.6q2.3-.8 2.3-3Zm9 5.7q2.8-3.8-2.5-4.5Q1.4-4.5.8-2.2 2.2-.3 4.2-1.1ZM5.7 7.5q4.7 1.3 3.1-3.7-3.7-4-6.3-3.9-1.3 1.9-.1 3.8Zm-11.4 0q-.2 5.1 5.1 2.3 2.8-5.7 1.9-7.5-2.3-.8-3.6 1.1ZM-9-2.8q-5.1 1.5-.8 5.3 6 .9 7.7-.9-.1-2.5-2.3-3Z" 
              fill="url(#decorIcon)" 
              stroke="#67A373" 
              stroke-width="0.2" 
              stroke-opacity="0.4"/>
      </g>
      
      <!-- 右上 -->
      <g transform="translate(120 -60) rotate(20) scale(1.2)">
        <path d="M0-8.5q-2.8-3.8-5.1 1.1Q-4-1.7-1.7-.6q2.3-.8 2.3-3Zm9 5.7q2.8-3.8-2.5-4.5Q1.4-4.5.8-2.2 2.2-.3 4.2-1.1ZM5.7 7.5q4.7 1.3 3.1-3.7-3.7-4-6.3-3.9-1.3 1.9-.1 3.8Zm-11.4 0q-.2 5.1 5.1 2.3 2.8-5.7 1.9-7.5-2.3-.8-3.6 1.1ZM-9-2.8q-5.1 1.5-.8 5.3 6 .9 7.7-.9-.1-2.5-2.3-3Z" 
              fill="url(#decorIcon)" 
              stroke="#67A373" 
              stroke-width="0.2" 
              stroke-opacity="0.4"/>
      </g>
      
      <!-- 左下 -->
      <g transform="translate(-100 100) rotate(-25) scale(0.8)">
        <path d="M0-8.5q-2.8-3.8-5.1 1.1Q-4-1.7-1.7-.6q2.3-.8 2.3-3Zm9 5.7q2.8-3.8-2.5-4.5Q1.4-4.5.8-2.2 2.2-.3 4.2-1.1ZM5.7 7.5q4.7 1.3 3.1-3.7-3.7-4-6.3-3.9-1.3 1.9-.1 3.8Zm-11.4 0q-.2 5.1 5.1 2.3 2.8-5.7 1.9-7.5-2.3-.8-3.6 1.1ZM-9-2.8q-5.1 1.5-.8 5.3 6 .9 7.7-.9-.1-2.5-2.3-3Z" 
              fill="url(#decorIcon)" 
              stroke="#67A373" 
              stroke-width="0.2" 
              stroke-opacity="0.4"/>
      </g>
      
      <!-- 右下 -->
      <g transform="translate(110 80) rotate(35) scale(1.1)">
        <path d="M0-8.5q-2.8-3.8-5.1 1.1Q-4-1.7-1.7-.6q2.3-.8 2.3-3Zm9 5.7q2.8-3.8-2.5-4.5Q1.4-4.5.8-2.2 2.2-.3 4.2-1.1ZM5.7 7.5q4.7 1.3 3.1-3.7-3.7-4-6.3-3.9-1.3 1.9-.1 3.8Zm-11.4 0q-.2 5.1 5.1 2.3 2.8-5.7 1.9-7.5-2.3-.8-3.6 1.1ZM-9-2.8q-5.1 1.5-.8 5.3 6 .9 7.7-.9-.1-2.5-2.3-3Z" 
              fill="url(#decorIcon)" 
              stroke="#67A373" 
              stroke-width="0.2" 
              stroke-opacity="0.4"/>
      </g>
    </g>
  </g>
  
  <!-- 底部装饰波浪 -->
  <path d="M0 350 Q200 330 400 350 T800 350 L800 400 L0 400 Z" fill="#67A373" opacity="0.05"/>
  <path d="M0 370 Q150 355 300 370 Q450 385 600 370 Q700 360 800 370 L800 400 L0 400 Z" fill="#B3E0BE" opacity="0.08"/>
</svg>
