<svg xmlns="http://www.w3.org/2000/svg" viewBox="0 0 800 400" width="800" height="400">
  <defs>
    <!-- 背景渐变 -->
    <linearGradient id="bgGradientDark" x1="0%" y1="0%" x2="100%" y2="100%">
      <stop offset="0%" stop-color="#252525"/>
      <stop offset="30%" stop-color="#2A2A2A"/>
      <stop offset="70%" stop-color="#303030"/>
      <stop offset="100%" stop-color="#353535"/>
    </linearGradient>
    
    <!-- 主图标渐变 -->
    <radialGradient id="mainIconDark" cx="30%" cy="20%" r="80%">
      <stop offset="0%" stop-color="#B3E0BE"/>
      <stop offset="40%" stop-color="#67A373"/>
      <stop offset="100%" stop-color="#4E7E58"/>
    </radialGradient>
    
    <!-- 装饰性图标渐变 -->
    <radialGradient id="decorIconDark" cx="30%" cy="20%" r="80%">
      <stop offset="0%" stop-color="#B3E0BE" stop-opacity="0.4"/>
      <stop offset="40%" stop-color="#67A373" stop-opacity="0.3"/>
      <stop offset="100%" stop-color="#4E7E58" stop-opacity="0.2"/>
    </radialGradient>
    
    <!-- 亮色装饰渐变 -->
    <radialGradient id="lightDecor" cx="50%" cy="50%" r="50%">
      <stop offset="0%" stop-color="#B3E0BE" stop-opacity="0.6"/>
      <stop offset="100%" stop-color="#67A373" stop-opacity="0.1"/>
    </radialGradient>
    
    <!-- 阴影滤镜 -->
    <filter id="shadowDark" x="-50%" y="-50%" width="200%" height="200%">
      <feDropShadow dx="0" dy="6" stdDeviation="12" flood-color="#000000" flood-opacity="0.3"/>
    </filter>
    
    <!-- 微光滤镜 -->
    <filter id="glowDark" x="-50%" y="-50%" width="200%" height="200%">
      <feGaussianBlur stdDeviation="4" result="coloredBlur"/>
      <feMerge>
        <feMergeNode in="coloredBlur"/>
        <feMergeNode in="SourceGraphic"/>
      </feMerge>
    </filter>
    
    <!-- 强光滤镜 -->
    <filter id="brightGlow" x="-100%" y="-100%" width="300%" height="300%">
      <feGaussianBlur stdDeviation="6" result="coloredBlur"/>
      <feMerge>
        <feMergeNode in="coloredBlur"/>
        <feMergeNode in="SourceGraphic"/>
      </feMerge>
    </filter>
  </defs>
  
  <!-- 背景 -->
  <rect width="800" height="400" fill="url(#bgGradientDark)"/>
  
  <!-- 背景星星效果 -->
  <g opacity="0.3">
    <circle cx="150" cy="80" r="1.5" fill="#B3E0BE"/>
    <circle cx="650" cy="120" r="1" fill="#67A373"/>
    <circle cx="700" cy="60" r="0.8" fill="#B3E0BE"/>
    <circle cx="100" cy="300" r="1.2" fill="#67A373"/>
    <circle cx="750" cy="320" r="1" fill="#B3E0BE"/>
    <circle cx="50" cy="150" r="0.9" fill="#67A373"/>
    <circle cx="220" cy="350" r="1.1" fill="#B3E0BE"/>
  </g>
  
  <!-- 装饰性背景图案 -->
  <g opacity="0.15">
    <!-- 装饰性花瓣图案 -->
    <g transform="translate(120 100)">
      <path d="M0-20q-5-7-10 2 2 11 7 14 4-2 4-6ZM18-6q5-7-5-9-10 6-11 10 3 4 7 2ZM11 15q9 3 6-7-7-8-12-8-3 4 0 8ZM-11 15q0 10 10 5 6-11 4-15-5-2-7 2ZM-18-6q-10 3-2 11 12 2 15-2 0-5-5-6Z" fill="url(#decorIconDark)"/>
    </g>
    
    <g transform="translate(630 300) scale(0.9)">
      <path d="M0-20q-5-7-10 2 2 11 7 14 4-2 4-6ZM18-6q5-7-5-9-10 6-11 10 3 4 7 2ZM11 15q9 3 6-7-7-8-12-8-3 4 0 8ZM-11 15q0 10 10 5 6-11 4-15-5-2-7 2ZM-18-6q-10 3-2 11 12 2 15-2 0-5-5-6Z" fill="url(#decorIconDark)"/>
    </g>
    
    <g transform="translate(680 80) scale(0.7)">
      <path d="M0-20q-5-7-10 2 2 11 7 14 4-2 4-6ZM18-6q5-7-5-9-10 6-11 10 3 4 7 2ZM11 15q9 3 6-7-7-8-12-8-3 4 0 8ZM-11 15q0 10 10 5 6-11 4-15-5-2-7 2ZM-18-6q-10 3-2 11 12 2 15-2 0-5-5-6Z" fill="url(#decorIconDark)"/>
    </g>
  </g>
  
  <!-- 背景光晕效果 -->
  <g opacity="0.1">
    <circle cx="400" cy="200" r="150" fill="url(#lightDecor)"/>
  </g>
  
  <!-- 主要内容区域 -->
  <g transform="translate(400 200)">
    <!-- 中央主图标 -->
    <g filter="url(#shadowDark)">
      <g transform="scale(4.5)">
        <path d="M0-8.5q-2.8-3.8-5.1 1.1Q-4-1.7-1.7-.6q2.3-.8 2.3-3Zm9 5.7q2.8-3.8-2.5-4.5Q1.4-4.5.8-2.2 2.2-.3 4.2-1.1ZM5.7 7.5q4.7 1.3 3.1-3.7-3.7-4-6.3-3.9-1.3 1.9-.1 3.8Zm-11.4 0q-.2 5.1 5.1 2.3 2.8-5.7 1.9-7.5-2.3-.8-3.6 1.1ZM-9-2.8q-5.1 1.5-.8 5.3 6 .9 7.7-.9-.1-2.5-2.3-3Z" 
              fill="url(#mainIconDark)" 
              stroke="#B3E0BE" 
              stroke-width="0.2" 
              stroke-opacity="0.9"
              filter="url(#brightGlow)"/>
      </g>
    </g>
    
    <!-- 围绕主图标的装饰性小图标 -->
    <g opacity="0.7">
      <!-- 左上 -->
      <g transform="translate(-140 -90) rotate(-20) scale(1.8)">
        <path d="M0-8.5q-2.8-3.8-5.1 1.1Q-4-1.7-1.7-.6q2.3-.8 2.3-3Zm9 5.7q2.8-3.8-2.5-4.5Q1.4-4.5.8-2.2 2.2-.3 4.2-1.1ZM5.7 7.5q4.7 1.3 3.1-3.7-3.7-4-6.3-3.9-1.3 1.9-.1 3.8Zm-11.4 0q-.2 5.1 5.1 2.3 2.8-5.7 1.9-7.5-2.3-.8-3.6 1.1ZM-9-2.8q-5.1 1.5-.8 5.3 6 .9 7.7-.9-.1-2.5-2.3-3Z" 
              fill="url(#decorIconDark)" 
              stroke="#67A373" 
              stroke-width="0.15" 
              stroke-opacity="0.6"
              filter="url(#glowDark)"/>
      </g>
      
      <!-- 右上 -->
      <g transform="translate(130 -70) rotate(25) scale(1.4)">
        <path d="M0-8.5q-2.8-3.8-5.1 1.1Q-4-1.7-1.7-.6q2.3-.8 2.3-3Zm9 5.7q2.8-3.8-2.5-4.5Q1.4-4.5.8-2.2 2.2-.3 4.2-1.1ZM5.7 7.5q4.7 1.3 3.1-3.7-3.7-4-6.3-3.9-1.3 1.9-.1 3.8Zm-11.4 0q-.2 5.1 5.1 2.3 2.8-5.7 1.9-7.5-2.3-.8-3.6 1.1ZM-9-2.8q-5.1 1.5-.8 5.3 6 .9 7.7-.9-.1-2.5-2.3-3Z" 
              fill="url(#decorIconDark)" 
              stroke="#67A373" 
              stroke-width="0.15" 
              stroke-opacity="0.6"
              filter="url(#glowDark)"/>
      </g>
      
      <!-- 左下 -->
      <g transform="translate(-120 110) rotate(-30) scale(1.0)">
        <path d="M0-8.5q-2.8-3.8-5.1 1.1Q-4-1.7-1.7-.6q2.3-.8 2.3-3Zm9 5.7q2.8-3.8-2.5-4.5Q1.4-4.5.8-2.2 2.2-.3 4.2-1.1ZM5.7 7.5q4.7 1.3 3.1-3.7-3.7-4-6.3-3.9-1.3 1.9-.1 3.8Zm-11.4 0q-.2 5.1 5.1 2.3 2.8-5.7 1.9-7.5-2.3-.8-3.6 1.1ZM-9-2.8q-5.1 1.5-.8 5.3 6 .9 7.7-.9-.1-2.5-2.3-3Z" 
              fill="url(#decorIconDark)" 
              stroke="#67A373" 
              stroke-width="0.15" 
              stroke-opacity="0.6"
              filter="url(#glowDark)"/>
      </g>
      
      <!-- 右下 -->
      <g transform="translate(125 95) rotate(40) scale(1.3)">
        <path d="M0-8.5q-2.8-3.8-5.1 1.1Q-4-1.7-1.7-.6q2.3-.8 2.3-3Zm9 5.7q2.8-3.8-2.5-4.5Q1.4-4.5.8-2.2 2.2-.3 4.2-1.1ZM5.7 7.5q4.7 1.3 3.1-3.7-3.7-4-6.3-3.9-1.3 1.9-.1 3.8Zm-11.4 0q-.2 5.1 5.1 2.3 2.8-5.7 1.9-7.5-2.3-.8-3.6 1.1ZM-9-2.8q-5.1 1.5-.8 5.3 6 .9 7.7-.9-.1-2.5-2.3-3Z" 
              fill="url(#decorIconDark)" 
              stroke="#67A373" 
              stroke-width="0.15" 
              stroke-opacity="0.6"
              filter="url(#glowDark)"/>
      </g>
    </g>
    
    <!-- 额外的光点装饰 -->
    <g opacity="0.5">
      <circle cx="-180" cy="-40" r="3" fill="#B3E0BE" filter="url(#glowDark)"/>
      <circle cx="160" cy="-30" r="2.5" fill="#67A373" filter="url(#glowDark)"/>
      <circle cx="-150" cy="130" r="2" fill="#B3E0BE" filter="url(#glowDark)"/>
      <circle cx="170" cy="120" r="2.8" fill="#67A373" filter="url(#glowDark)"/>
    </g>
  </g>
  
  <!-- 底部装饰波浪 -->
  <path d="M0 340 Q200 325 400 340 T800 340 L800 400 L0 400 Z" fill="#67A373" opacity="0.1"/>
  <path d="M0 365 Q150 350 300 365 Q450 380 600 365 Q700 355 800 365 L800 400 L0 400 Z" fill="#B3E0BE" opacity="0.08"/>
  
  <!-- 顶部装饰性光线 -->
  <g opacity="0.06">
    <path d="M0 0 L200 60 L400 20 L600 50 L800 0 L800 80 Q400 40 0 80 Z" fill="#B3E0BE"/>
  </g>
</svg>
